<svg xmlns="http://www.w3.org/2000/svg" xml:space="preserve" style="enable-background:new 0 0 512 512" viewBox="0 0 512 512" id="stock">
  <g id="_x34_9_x2C__Stock_x2C__Inventory_x2C__Supplies_x2C__Warehouse_x2C__Products_x2C__Goods">
    <g>
      <g>
        <path d="M161 331h-20c-2.762 0-5 2.238-5 5s2.238 5 5 5h20c2.762 0 5-2.238 5-5S163.762 331 161 331zM136 316c0 2.762 2.238 5 5 5h20c2.762 0 5-2.238 5-5s-2.238-5-5-5h-20C138.238 311 136 313.238 136 316zM301 331h-20c-2.762 0-5 2.238-5 5s2.238 5 5 5h20c2.762 0 5-2.238 5-5S303.762 331 301 331zM276 316c0 2.762 2.238 5 5 5h20c2.762 0 5-2.238 5-5s-2.238-5-5-5h-20C278.238 311 276 313.238 276 316zM441 331h-20c-2.762 0-5 2.238-5 5s2.238 5 5 5h20c2.762 0 5-2.238 5-5S443.762 331 441 331zM441 311h-20c-2.762 0-5 2.238-5 5s2.238 5 5 5h20c2.762 0 5-2.238 5-5S443.762 311 441 311zM231 191h-20c-2.762 0-5 2.238-5 5s2.238 5 5 5h20c2.762 0 5-2.238 5-5S233.762 191 231 191zM231 171h-20c-2.762 0-5 2.238-5 5s2.238 5 5 5h20c2.762 0 5-2.238 5-5S233.762 171 231 171zM371 191h-20c-2.762 0-5 2.238-5 5s2.238 5 5 5h20c2.762 0 5-2.238 5-5S373.762 191 371 191zM371 171h-20c-2.762 0-5 2.238-5 5s2.238 5 5 5h20c2.762 0 5-2.238 5-5S373.762 171 371 171z"></path>
        <path d="M506,356h-40V221c0-2.762-2.238-5-5-5c-8.104,0-45.487,0-65,0V81c0-2.762-2.238-5-5-5c-87.5,0-192.5,0-280,0
				c-2.762,0-5,2.238-5,5v135c-6.115,0-49.275,0-65,0c-2.762,0-5,2.238-5,5v135H6c-2.762,0-5,2.238-5,5v40c0,2.762,2.238,5,5,5h30
				v25c0,2.762,2.238,5,5,5h90c2.152,0,4.063-1.377,4.743-3.419l8.86-26.581h222.793l8.86,26.581
				c0.681,2.042,2.591,3.419,4.743,3.419h90c2.762,0,5-2.238,5-5v-25h30c2.762,0,5-2.238,5-5v-40C511,358.238,508.762,356,506,356z
				 M421,226h35v25h-35V226z M351,86h35v25h-35V86z M256,86h35v25h-35V86z M256,121h35v19.288c0,0.104,0.024,0.201,0.031,0.303
				c-0.364,4.442,4.862,7.093,8.234,4.206l9.248-7.924l9.24,7.923c1.873,1.605,4.636,1.605,6.509,0l9.243-7.922l9.24,7.922
				c3.389,2.905,8.631,0.22,8.229-4.245c0.045-0.854,0.019-12.75,0.026-19.551h35v95c-14.055,0-115.698,0-130,0V121z M361,226v25
				h-35v-25H361z M211,86h35v25h-35V86z M116,86h35v25h-35V86z M116,121h35c0.011,8.535-0.024,18.681,0.031,19.591
				c-0.364,4.442,4.862,7.093,8.234,4.206l9.248-7.924l9.24,7.923c1.873,1.605,4.636,1.605,6.509,0l9.243-7.922l9.24,7.922
				c3.389,2.905,8.631,0.22,8.229-4.245c0.045-0.854,0.019-12.75,0.026-19.551h35v95c-14.055,0-115.698,0-130,0V121z M221,226v25
				h-35v-25H221z M46,226h35v25H46V226z M127.396,426H46v-20h88.063L127.396,426z M176,356H46v-95h35
				c0.011,8.535-0.024,18.681,0.031,19.591c-0.362,4.413,4.83,7.121,8.234,4.206l9.248-7.924l9.24,7.923
				c1.873,1.605,4.636,1.605,6.509,0l9.243-7.922l9.24,7.922c3.389,2.905,8.631,0.22,8.229-4.245
				c0.045-0.854,0.019-12.75,0.026-19.551h35V356z M176,251h-35v-25h35V251z M316,356H186v-95h35
				c0.011,8.535-0.024,18.681,0.031,19.591c-0.364,4.442,4.862,7.093,8.234,4.206l9.248-7.924l9.24,7.923
				c1.873,1.605,4.636,1.605,6.509,0l9.243-7.922l9.24,7.922c3.389,2.905,8.631,0.22,8.229-4.245
				c0.045-0.854,0.019-12.75,0.026-19.551h35V356z M316,251h-35v-25h35V251z M326,356v-95h35c0.011,8.535-0.024,18.681,0.031,19.591
				c-0.364,4.442,4.862,7.093,8.234,4.206l9.248-7.924l9.24,7.923c1.873,1.605,4.636,1.605,6.509,0l9.243-7.922l9.24,7.922
				c3.399,2.914,8.63,0.211,8.229-4.245c0.045-0.854,0.019-12.75,0.026-19.551h35v95H326z M466,426h-81.396l-6.666-20H466V426z"></path>
      </g>
    </g>
  </g>
</svg>
